<svg xmlns="http://www.w3.org/2000/svg" version="1.1" xmlns:xlink="http://www.w3.org/1999/xlink" xmlns:svgjs="http://svgjs.com/svgjs" width="400" height="100" preserveAspectRatio="none" viewBox="0 0 400 100">
    <g mask="url(&quot;#SvgjsMask1021&quot;)" fill="none">
        <rect width="400" height="100" x="0" y="0" fill="#0e2a47"></rect>
        <path d="M298.80515693579116 23.965607847487217L306.43179242589264 10.206793211296313 292.6729777897017 2.580157721194862 285.04634229960027 16.338972357385764z" fill="rgba(28, 83, 142, 0.4)" class="triangle-float2"></path>
        <path d="M243.402,87.695C248.753,87.749,254.045,85.36,256.636,80.678C259.158,76.12,257.95,70.653,255.318,66.158C252.719,61.72,248.535,58.406,243.402,58.08C237.636,57.714,231.408,59.442,228.539,64.457C225.684,69.448,227.524,75.572,230.622,80.416C233.453,84.842,238.148,87.642,243.402,87.695" fill="rgba(28, 83, 142, 0.4)" class="triangle-float2"></path>
        <path d="M29.079859092309633 103.4841242900196L45.58140586827836 91.92961684536616 17.525351647656187 86.98257751405086z" fill="rgba(28, 83, 142, 0.4)" class="triangle-float2"></path>
        <path d="M415.3137218178877 55.42204641325132L392.9201207495996 48.14592435658227 385.64399869293055 70.53952542487038 408.03759976121864 77.81564748153943z" fill="rgba(28, 83, 142, 0.4)" class="triangle-float3"></path>
        <path d="M235.9897876294146 53.524936128384056L209.1993195354683 63.27586907663891 218.95025248372315 90.0663371705852 245.74072057766944 80.31540422233034z" fill="rgba(28, 83, 142, 0.4)" class="triangle-float3"></path>
        <path d="M206.448,16.747C211.519,16.751,216.801,14.868,219.122,10.359C221.309,6.11,218.962,1.333,216.485,-2.754C214.131,-6.639,210.989,-10.42,206.448,-10.559C201.712,-10.704,197.735,-7.459,195.283,-3.405C192.727,0.821,191.412,6.02,193.806,10.34C196.26,14.769,201.385,16.743,206.448,16.747" fill="rgba(28, 83, 142, 0.4)" class="triangle-float3"></path>
        <path d="M91.038,84.199C99.9,83.995,105.24,75.127,109.024,67.111C112.178,60.43,112.433,52.904,108.869,46.432C105.167,39.709,98.705,34.795,91.038,34.451C82.751,34.079,74.37,37.525,70.202,44.697C66.017,51.899,67.671,60.606,71.557,67.974C75.783,75.986,81.982,84.408,91.038,84.199" fill="rgba(28, 83, 142, 0.4)" class="triangle-float3"></path>
        <path d="M115.98890812066804 41.25437045641999L120.97058046251955 26.786543452198053 106.50275345829762 21.804871110346546 101.52108111644611 36.272698114568485z" fill="rgba(28, 83, 142, 0.4)" class="triangle-float3"></path>
        <path d="M309.80155167561065 15.470218124624452L315.09664433171844-11.632743399481802 292.1379740206104-4.173019216085114z" fill="rgba(28, 83, 142, 0.4)" class="triangle-float1"></path>
        <path d="M132.86020469958714 74.17952507482265L152.293349017561 89.91617505829217 168.02999900103055 70.4830307403183 148.59685468305668 54.746380756848765z" fill="rgba(28, 83, 142, 0.4)" class="triangle-float3"></path>
        <path d="M296.2171291926476 109.28691249055464L310.11668338210063 100.93521775607275 287.8654344581657 95.38735830110159z" fill="rgba(28, 83, 142, 0.4)" class="triangle-float2"></path>
    </g>
    <defs>
        <mask id="SvgjsMask1021">
            <rect width="400" height="100" fill="#ffffff"></rect>
        </mask>
        <style>
            @keyframes float1 {
                0%{transform: translate(0, 0)}
                50%{transform: translate(-10px, 0)}
                100%{transform: translate(0, 0)}
            }

            .triangle-float1 {
                animation: float1 5s infinite;
            }

            @keyframes float2 {
                0%{transform: translate(0, 0)}
                50%{transform: translate(-5px, -5px)}
                100%{transform: translate(0, 0)}
            }

            .triangle-float2 {
                animation: float2 4s infinite;
            }

            @keyframes float3 {
                0%{transform: translate(0, 0)}
                50%{transform: translate(0, -10px)}
                100%{transform: translate(0, 0)}
            }

            .triangle-float3 {
                animation: float3 6s infinite;
            }
        </style>
    </defs>
</svg>